<?xml version="1.0" standalone="no"?>
<!DOCTYPE svg PUBLIC "-//W3C//DTD SVG 20010904//EN"
 "http://www.w3.org/TR/2001/REC-SVG-20010904/DTD/svg10.dtd">
<svg version="1.0" xmlns="http://www.w3.org/2000/svg"
 width="48.000000pt" height="48.000000pt" viewBox="0 0 48.000000 48.000000"
 preserveAspectRatio="xMidYMid meet">

<g transform="translate(0.000000,48.000000) scale(0.100000,-0.100000)"
fill="#000000" stroke="none">
<path d="M84 420 c-33 -13 -46 -63 -34 -132 12 -67 33 -120 53 -136 22 -18 52
19 38 47 -18 33 -13 142 8 184 12 23 15 37 7 37 -6 0 -20 2 -31 5 -11 2 -30 0
-41 -5z"/>
<path d="M339 395 c28 -33 31 -42 31 -108 1 -68 2 -71 15 -46 8 15 19 48 25
73 13 58 2 82 -45 102 -53 22 -60 17 -26 -21z"/>
<path d="M189 391 c-35 -36 -37 -51 -4 -51 34 0 49 -32 42 -97 -3 -29 -1 -55
4 -58 5 -4 9 -27 9 -53 0 -48 16 -93 35 -99 28 -9 47 25 55 93 6 57 4 75 -11
106 -25 49 -24 83 2 101 18 13 19 18 7 36 -14 23 -66 51 -93 51 -9 0 -30 -13
-46 -29z"/>
<path d="M163 313 c-17 -6 -16 -74 0 -98 18 -23 34 -13 42 27 6 24 3 35 -10
44 -9 7 -14 17 -10 23 6 11 -1 13 -22 4z"/>
<path d="M331 280 c0 -8 4 -22 9 -30 12 -18 12 -2 0 25 -6 13 -9 15 -9 5z"/>
<path d="M355 163 c-6 -17 13 -16 44 1 24 13 24 13 -7 12 -18 0 -34 -7 -37
-13z"/>
<path d="M176 161 c-14 -5 -16 -10 -8 -15 16 -9 54 3 47 15 -7 10 -13 10 -39
0z"/>
</g>
</svg>
